<?xml version="1.0" standalone="no"?>
<!DOCTYPE svg PUBLIC "-//W3C//DTD SVG 20010904//EN"
 "http://www.w3.org/TR/2001/REC-SVG-20010904/DTD/svg10.dtd">
<svg version="1.0" xmlns="http://www.w3.org/2000/svg"
 width="832.000000pt" height="832.000000pt" viewBox="0 0 832.000000 832.000000"
 preserveAspectRatio="xMidYMid meet">
<metadata>
Created by potrace 1.14, written by Peter Selinger 2001-2017
</metadata>
<g transform="translate(0.000000,832.000000) scale(0.100000,-0.100000)"
fill="#000000" stroke="none">
<path d="M10 7185 c0 -8 10 -37 21 -63 39 -87 56 -127 74 -175 10 -26 22 -50
26 -53 5 -3 9 -12 9 -21 0 -8 6 -29 14 -46 20 -43 53 -122 131 -312 20 -49 43
-106 52 -125 8 -19 19 -44 24 -55 4 -11 21 -50 38 -87 16 -38 28 -68 25 -68
-3 0 1 -12 10 -27 17 -33 37 -79 66 -152 11 -30 29 -73 39 -95 11 -23 35 -81
55 -131 21 -49 44 -105 52 -122 8 -18 21 -50 28 -70 7 -21 23 -60 36 -88 12
-27 25 -59 30 -70 8 -23 16 -41 59 -137 16 -38 28 -68 25 -68 -3 0 1 -12 10
-27 15 -30 17 -34 96 -223 29 -69 57 -136 63 -150 6 -14 11 -27 12 -30 0 -3
11 -27 23 -54 12 -27 22 -53 22 -57 0 -5 4 -17 9 -27 12 -22 42 -91 71 -162
12 -30 28 -68 36 -85 7 -16 30 -70 50 -120 20 -49 42 -103 49 -120 7 -16 29
-70 49 -120 20 -49 43 -103 51 -120 27 -59 58 -130 60 -140 1 -5 9 -27 19 -47
9 -21 16 -40 16 -42 0 -3 14 -35 30 -71 17 -36 30 -68 30 -71 0 -3 9 -24 19
-47 10 -23 35 -82 55 -132 21 -49 46 -109 57 -132 10 -24 19 -47 19 -53 0 -5
8 -24 18 -42 9 -18 28 -60 41 -93 13 -33 30 -76 39 -95 19 -43 124 -295 204
-490 32 -80 65 -158 72 -175 12 -26 52 -122 77 -180 4 -11 21 -51 37 -90 16
-38 62 -149 102 -245 39 -96 78 -188 85 -205 7 -16 32 -76 56 -133 23 -56 46
-99 50 -95 4 5 41 91 83 193 43 102 84 199 92 217 7 17 14 34 14 37 0 3 11 29
24 58 13 29 49 114 79 188 31 74 62 151 70 170 9 19 15 37 16 40 0 3 16 40 35
83 20 43 36 85 36 93 0 7 5 14 10 14 6 0 10 6 10 14 0 13 19 61 61 153 10 24
19 50 19 58 0 8 5 15 10 15 6 0 10 6 10 13 0 11 129 325 165 404 8 17 15 35
15 40 0 4 9 25 20 46 11 20 20 39 20 42 -1 3 9 27 21 53 11 26 22 52 23 57 1
6 10 28 20 50 10 22 26 63 37 90 11 28 24 59 29 70 5 11 16 37 24 58 9 20 22
52 30 70 8 17 42 100 76 182 34 83 71 170 82 195 12 25 21 51 21 58 0 6 4 12
9 12 4 0 8 6 8 13 0 12 51 140 85 214 8 17 15 33 15 36 0 2 10 26 22 53 12 27
23 51 23 54 2 6 4 10 71 170 27 63 49 117 50 120 0 3 6 16 11 30 33 75 205
487 207 495 2 6 11 28 21 50 9 22 53 126 97 230 87 208 89 214 112 267 9 20
16 39 16 42 0 3 13 34 29 68 15 35 34 81 41 103 7 22 16 42 19 45 4 3 21 41
38 85 17 44 42 103 54 130 12 28 23 55 24 60 2 6 21 53 43 105 22 52 59 140
82 195 22 55 45 109 50 120 28 62 53 124 100 240 29 72 57 136 63 143 7 9
-481 12 -2437 12 -2175 0 -2446 -2 -2446 -15z"/>
<path d="M5135 7144 c-14 -31 -25 -59 -25 -61 0 -3 -6 -19 -14 -36 -8 -18 -27
-61 -41 -97 -15 -36 -33 -78 -40 -95 -24 -54 -48 -110 -51 -120 -6 -22 -153
-372 -180 -429 -8 -16 -14 -32 -14 -36 0 -4 -12 -34 -27 -66 -14 -33 -27 -63
-29 -69 -1 -5 -23 -59 -49 -120 -25 -60 -51 -121 -57 -135 -5 -14 -16 -38 -24
-55 -7 -16 -47 -113 -89 -215 -41 -102 -82 -197 -91 -212 -8 -15 -14 -29 -14
-30 2 -4 -10 -39 -25 -73 -42 -95 -69 -172 -66 -185 3 -13 67 -170 103 -250 6
-14 14 -34 18 -45 5 -11 17 -41 29 -67 12 -26 21 -50 21 -53 0 -7 38 -93 56
-127 9 -16 13 -28 10 -28 -3 0 9 -30 25 -67 17 -38 34 -77 38 -88 5 -11 16
-36 24 -55 8 -19 31 -75 52 -125 20 -49 45 -109 56 -132 10 -24 19 -45 19 -47
0 -2 6 -19 14 -37 8 -19 15 -38 16 -44 1 -5 11 -26 21 -47 10 -20 32 -72 50
-115 17 -43 37 -91 44 -108 8 -16 30 -70 50 -120 35 -85 45 -109 79 -187 8
-18 31 -73 51 -123 81 -199 107 -261 120 -290 8 -16 30 -70 50 -120 38 -93 52
-125 78 -185 9 -19 25 -60 37 -90 12 -30 28 -70 36 -88 33 -76 44 -102 78
-184 20 -49 52 -127 72 -175 20 -49 42 -101 49 -118 8 -16 30 -70 50 -120 21
-49 43 -105 51 -122 48 -112 65 -153 89 -213 10 -25 31 -73 47 -108 15 -35 28
-67 28 -72 0 -5 4 -11 9 -14 4 -3 21 25 36 62 15 37 33 81 40 97 8 17 55 129
105 250 50 121 101 245 114 275 13 30 45 107 71 170 26 63 68 162 92 220 24
58 48 114 52 125 4 11 18 41 30 68 11 26 21 54 21 62 0 8 4 15 10 15 5 0 9 3
8 8 -1 8 6 30 33 89 10 24 19 45 19 48 0 2 11 29 25 59 14 30 25 58 25 61 0 3
8 25 19 48 10 23 35 83 56 132 45 110 54 132 71 170 12 27 33 77 155 370 19
44 34 82 34 85 1 3 9 23 19 45 15 34 47 110 98 233 6 15 12 29 13 32 0 3 7 16
15 30 7 14 13 26 12 27 -1 2 6 20 15 40 9 21 18 47 20 57 2 11 7 24 12 30 5 6
24 47 41 91 17 44 38 94 45 110 15 33 47 107 50 115 9 27 20 53 38 94 12 27
22 52 23 55 0 3 7 22 16 41 8 19 36 87 62 150 27 63 55 131 64 150 9 19 17 37
17 40 1 6 61 151 86 207 11 23 19 44 19 48 0 3 9 24 19 48 47 103 91 212 91
224 0 7 4 13 8 13 5 0 9 6 9 13 1 9 98 245 186 447 5 14 11 27 11 30 1 5 14
36 58 137 23 54 40 97 38 101 0 1 6 15 14 30 8 15 24 52 36 82 12 30 28 69 35
85 8 17 26 59 40 95 14 36 32 79 40 95 7 17 23 54 35 84 11 30 29 73 39 95 45
106 56 131 57 136 0 3 8 23 18 45 10 22 22 50 27 63 l9 22 -1580 0 -1580 0
-25 -56z"/>
</g>
</svg>
